# xmcd
# 
# Track frame offsets:
#     150
#     16131
#     33974
#     49151
#     66199
#     81508
#     99048
#     120224
#     135910
#     147306
#     165219
#     181278
# 
# Disc length: 2688
# 
# Revision: 2
# Processed by: cddbd v1.5.2PL0 Copyright (c) Steve Scherf et al.
# Submitted via: fre:ac v1.0.31
# 
DISCID=890a7e0c
DTITLE=De Dijk - Scherp De Zeis
DYEAR=2011
DGENRE=National Rock
TTITLE0=Ik Jou En Jij Mij
TTITLE1=Sjoege
TTITLE2=Kan Ik Iets Voor Je Doen
TTITLE3=Scherp De Zeis
TTITLE4=De Blues Verlaat Je Nooit
TTITLE5=De weg
TTITLE6=Laat Het Niet Over Zijn
TTITLE7=Altijd Bij Me
TTITLE8=Wil Je Winnen
TTITLE9=Mooier Dan Een Vrouw
TTITLE10=Zwerver
TTITLE11=Anders Dan Je Dacht
EXTD=
EXTT0=
EXTT1=
EXTT2=
EXTT3=
EXTT4=
EXTT5=
EXTT6=
EXTT7=
EXTT8=
EXTT9=
EXTT10=
EXTT11=
PLAYORDER=
